# xmcd
#
# Track frame offsets:
#	150
#	11965
#	30523
#	44145
#	57480
#	69246
#	85079
#	94754
#	106097
#	121523
#	134844
#	146487
#	160627
#	173446
#
# Disc length: 2493 seconds
#
# Revision: 0
# Processed by: cddbd v1.5.2PL0 Copyright (c) Steve Scherf et al.
# Submitted via: audiograbber 1.83.01
#
DISCID=b309bb0e
DTITLE=Verschiedene Interpreten - Stand By Your Man CD2
DYEAR=2010
DGENRE=Country
TTITLE0=Willy Nelson - Is There Something On Your Mind
TTITLE1=Juice Newton - Angel Of The Morning
TTITLE2=Jack Green - You Are My Treasure
TTITLE3=Kenny Rogers - But You Know  That I Love You
TTITLE4=Jeanne Pruett - Standing On The Promises
TTITLE5=T. G. Sheppard - You´re My First Lady
TTITLE6=Faron Young - Country Girl
TTITLE7=Kitty Wells - Heartbreak U.S.A.
TTITLE8=Kenny Rogers - My Washington Woman
TTITLE9=Johnny Paycheck - Slide Off Your Satin Sheets
TTITLE10=Jucie Newton - Crazy Little Thing Called Love
TTITLE11=Donna Fargo - Do I Love You
TTITLE12=Patsy Cline - Yes I Understand
TTITLE13=T. Graham Brown - Pick Me Up On Your Way Down
EXTD=
EXTT0=
EXTT1=
EXTT2=
EXTT3=
EXTT4=
EXTT5=
EXTT6=
EXTT7=
EXTT8=
EXTT9=
EXTT10=
EXTT11=
EXTT12=
EXTT13=
PLAYORDER=
